<svg width="19" height="12" viewBox="0 0 19 12" fill="none" xmlns="http://www.w3.org/2000/svg">
<g id="Group">
<path id="Vector" d="M9.29067 6.18475L9.29066 6.18472L9.28642 6.18726C9.24355 6.21297 9.1802 6.23207 9.11021 6.23207H9.10632C9.01151 6.23207 8.9453 6.20375 8.91878 6.18382L8.91808 6.18329L1.21275 0.419287H16.9948L9.64816 5.92156L9.64777 5.92185L9.32166 6.16672L9.3204 6.16744L9.32039 6.16743L9.31829 6.16865L9.29067 6.18475ZM11.393 6.49866L17.0799 10.6457H1.08144L6.78056 6.46793L7.96124 7.3517L7.96235 7.35253C8.28469 7.59207 8.69285 7.71479 9.1089 7.71479C9.52442 7.71479 9.93283 7.59107 10.2554 7.35084L10.2564 7.35015L11.393 6.49866ZM5.51866 5.52381L0.4 9.27662V1.69465L5.51866 5.52381ZM17.767 1.72567V9.2814L12.6557 5.55358L17.767 1.72567Z" stroke="white" strokeWidth="0.8"/>
</g>
</svg>
