<svg width="23" height="21" viewBox="0 0 23 21" fill="none" xmlns="http://www.w3.org/2000/svg">
<g id="L" clip-path="url(#clip0_8_114)">
<path id="Shape" fill-rule="evenodd" clip-rule="evenodd" d="M18.6813 19.116H1.6573C0.841298 19.116 0.180298 18.537 0.180298 17.823V2.38502C0.180298 1.67202 0.841298 1.09302 1.6573 1.09302H18.6813C19.4963 1.09302 20.1573 1.67202 20.1573 2.38502V17.823C20.1573 18.537 19.4963 19.116 18.6813 19.116ZM3.6423 16.147H6.5843V8.01002H3.6423V16.147ZM5.1333 4.08802C4.1263 4.08802 3.4693 4.69502 3.4693 5.49402C3.4693 6.27402 4.1073 6.90002 5.0943 6.90002H5.1133C6.1393 6.90002 6.7773 6.27402 6.7773 5.49402C6.7593 4.69502 6.1393 4.08802 5.1333 4.08802ZM17.1923 11.482C17.1923 8.98202 15.7403 7.81902 13.8053 7.81902C12.2433 7.81902 11.5453 8.60802 11.1543 9.16302V8.01002H8.2123C8.2513 8.77402 8.2123 16.147 8.2123 16.147H11.1543V11.603C11.1543 11.361 11.1733 11.117 11.2513 10.944C11.4633 10.458 11.9483 9.95502 12.7603 9.95502C13.8253 9.95502 14.2503 10.701 14.2503 11.795V16.147H17.1923V11.482ZM11.1343 9.19002C11.1403 9.18102 11.1483 9.17202 11.1543 9.16302V9.19002H11.1343Z" fill="white"/>
</g>
<defs>
<clipPath id="clip0_8_114">
<rect width="22.7088" height="20.048" fill="white" transform="translate(0.169312 0.103027)"/>
</clipPath>
</defs>
</svg>
