<svg width="13" height="13" viewBox="0 0 13 13" fill="none" xmlns="http://www.w3.org/2000/svg">
<path id="Vector" d="M2.09564 7.43538L2.10265 7.4425L6.33033 11.7375L10.558 7.4425L10.565 7.43538L10.5723 7.42855C12.0367 6.05505 11.8693 3.75671 10.0945 2.50821C9.07558 1.79143 7.71489 1.4187 6.33044 1.4187C4.94601 1.4187 3.58524 1.79142 2.56613 2.50821L2.09564 7.43538ZM2.09564 7.43538L2.08836 7.42855M2.09564 7.43538L2.08836 7.42855M2.08836 7.42855C0.623923 6.05506 0.791321 3.75673 2.5661 2.50823L2.08836 7.42855ZM3.99464 4.91033C3.99464 5.48458 4.32617 5.95433 4.76093 6.26016C5.19709 6.56698 5.77324 6.74091 6.38612 6.74091C6.99901 6.74091 7.57516 6.56698 8.01132 6.26016C8.44607 5.95433 8.77761 5.48458 8.77761 4.91033C8.77761 4.33607 8.44607 3.86632 8.01132 3.56049C7.57516 3.25367 6.99901 3.07975 6.38612 3.07975C5.77324 3.07975 5.19709 3.25367 4.76093 3.56049C4.32617 3.86632 3.99464 4.33607 3.99464 4.91033Z" fill="white" stroke="white"/>
</svg>
