<svg width="17" height="20" viewBox="0 0 17 20" fill="none" xmlns="http://www.w3.org/2000/svg">
<g id="P" clip-path="url(#clip0_8_121)">
<path id="Shape" fill-rule="evenodd" clip-rule="evenodd" d="M7.71975 0.105469C2.78475 0.105469 0.296753 3.62747 0.296753 6.56547C0.296753 8.34347 0.972753 9.92547 2.42375 10.5155C2.66175 10.6125 2.87475 10.5185 2.94375 10.2565C2.99175 10.0755 3.10575 9.61747 3.15575 9.42647C3.22575 9.16747 3.19875 9.07647 3.00675 8.85047C2.58775 8.35947 2.32075 7.72347 2.32075 6.82247C2.32075 4.20947 4.28475 1.87047 7.43475 1.87047C10.2238 1.87047 11.7558 3.56747 11.7558 5.83247C11.7558 8.81447 10.4308 11.3305 8.46275 11.3305C7.37675 11.3305 6.56375 10.4355 6.82375 9.33847C7.13675 8.02947 7.74075 6.61547 7.74075 5.66947C7.74075 4.82347 7.28475 4.11747 6.33975 4.11747C5.22975 4.11747 4.33775 5.26147 4.33775 6.79347C4.33775 7.77047 4.66875 8.43047 4.66875 8.43047C4.66875 8.43047 3.53175 13.2245 3.33275 14.0645C2.93575 15.7365 3.27375 17.7865 3.30175 17.9945C3.31875 18.1165 3.47675 18.1455 3.54875 18.0535C3.65075 17.9195 4.97375 16.2945 5.42375 14.6695C5.55075 14.2095 6.15375 11.8275 6.15375 11.8275C6.51475 12.5125 7.56975 13.1165 8.69075 13.1165C12.0298 13.1165 14.2948 10.0855 14.2948 6.02947C14.2948 2.96247 11.6858 0.105469 7.71975 0.105469Z" fill="white"/>
</g>
<defs>
<clipPath id="clip0_8_121">
<rect width="15.8962" height="19.0456" fill="white" transform="translate(0.295776 0.105469)"/>
</clipPath>
</defs>
</svg>
