<svg width="19" height="17" viewBox="0 0 19 17" fill="none" xmlns="http://www.w3.org/2000/svg">
<g id="Group">
<g id="Group_2">
<path id="Vector" d="M10.79 15.3913C11.5789 15.6801 12.2461 15.8613 12.7913 15.935C13.3366 16.0086 13.7311 16.0454 13.975 16.0454C14.0776 16.0454 14.161 16.0425 14.2251 16.0369C14.2892 16.0312 14.3278 16.0283 14.3407 16.0283L10.79 15.3913ZM10.79 15.3913C10.0008 15.1025 9.10596 14.6692 8.10527 14.0916L10.79 15.3913ZM15.0118 15.2105L15.0012 15.2198L14.9911 15.2297C14.9296 15.29 14.8354 15.3548 14.6932 15.4154L14.6929 15.4155C14.5516 15.4758 14.4197 15.5125 14.2963 15.5298C14.2601 15.5319 14.2177 15.5356 14.1824 15.5387L14.1812 15.5388C14.1812 15.5388 14.1811 15.5388 14.1811 15.5388C14.1373 15.5427 14.07 15.5454 13.975 15.5454C13.7675 15.5454 13.4018 15.5129 12.8583 15.4395C12.3623 15.3725 11.7326 15.2039 10.9618 14.9218L10.9618 14.9218C10.2076 14.6457 9.33955 14.2267 8.35522 13.6585L8.35521 13.6585C7.39169 13.1024 6.35451 12.3319 5.24366 11.3401L5.24368 11.34L5.23887 11.3358C4.35588 10.5674 3.63223 9.83929 3.06354 9.15173C2.48511 8.45232 2.02685 7.814 1.68425 7.23609L1.68424 7.23607C1.33577 6.64831 1.08171 6.12749 0.915594 5.67181C0.741855 5.19523 0.629688 4.79955 0.572295 4.48035C0.510685 4.13769 0.493138 3.90356 0.50222 3.75924C0.511048 3.61896 0.517827 3.50771 0.520802 3.44145C0.538204 3.35378 0.573573 3.25487 0.634348 3.14372L0.207121 2.9101L0.634348 3.14372C0.696674 3.02975 0.764711 2.95099 0.833858 2.89605L0.844008 2.88798L0.853726 2.8794L3.41327 0.619767C3.50528 0.538539 3.59405 0.50708 3.69819 0.50708C3.77542 0.50708 3.82524 0.525219 3.86479 0.551401C3.9375 0.599549 3.99901 0.657196 4.0511 0.725926L6.09787 4.15405L6.10159 4.16029L6.10549 4.16641C6.14583 4.22972 6.15799 4.2885 6.13703 4.37639C6.10976 4.49075 6.05532 4.58176 5.96532 4.66122L5.02233 5.49371L5.35324 5.86855L5.02233 5.49372C4.90977 5.59308 4.85086 5.71565 4.81812 5.80236C4.78885 5.87988 4.75702 5.98676 4.75702 6.1064V6.15973L4.76826 6.21185C4.83444 6.51858 4.97594 6.8403 5.17032 7.17179C5.3443 7.47824 5.60095 7.83338 5.929 8.23304C6.274 8.65336 6.75134 9.12324 7.35091 9.64131C7.9386 10.1714 8.47248 10.594 8.95091 10.9018L8.95098 10.9018C9.40972 11.1968 9.80841 11.4239 10.1418 11.5742L10.3473 11.1184L10.1418 11.5742C10.4506 11.7134 10.7286 11.8175 10.9534 11.8571L11.1935 11.8995L11.2367 11.9071H11.2806C11.3851 11.9071 11.4882 11.8786 11.5468 11.8613L11.547 11.8613C11.6292 11.837 11.7542 11.7919 11.8617 11.697L11.8617 11.697L11.8649 11.6941L12.948 10.7212C13.0839 10.6184 13.2399 10.565 13.436 10.565C13.6103 10.565 13.6926 10.5934 13.7215 10.6087L13.8313 10.6669H13.8523L17.4531 12.5446C17.616 12.6345 17.6626 12.7113 17.6781 12.7587C17.6836 12.8234 17.6666 12.8836 17.5705 12.9687C17.5703 12.9689 17.5701 12.9691 17.5698 12.9693L15.0118 15.2105Z" stroke="white"/>
</g>
</g>
</svg>
