<svg width="26" height="18" viewBox="0 0 26 18" fill="none" xmlns="http://www.w3.org/2000/svg">
<g id="T" clip-path="url(#clip0_8_112)">
<path id="Shape" fill-rule="evenodd" clip-rule="evenodd" d="M21.78 2.00389C21.007 2.32589 20.176 2.54089 19.305 2.63889C20.195 2.13889 20.878 1.34689 21.2 0.404887C20.366 0.866887 19.444 1.20289 18.462 1.38489C17.677 0.598887 16.556 0.108887 15.317 0.108887C12.937 0.108887 11.006 1.91789 11.006 4.14789C11.006 4.46489 11.044 4.77389 11.118 5.06889C7.53597 4.89989 4.35997 3.29189 2.23397 0.848887C1.86297 1.44589 1.65097 2.13889 1.65097 2.87989C1.65097 4.27989 2.41197 5.51789 3.56797 6.24189C2.86197 6.21989 2.19797 6.03889 1.61597 5.73589C1.61597 5.75389 1.61597 5.76889 1.61597 5.78789C1.61597 7.74489 3.10097 9.37689 5.07297 9.74789C4.71197 9.83989 4.32997 9.88789 3.93797 9.88789C3.65997 9.88789 3.38997 9.86389 3.12697 9.81789C3.67497 11.4209 5.26697 12.5899 7.15297 12.6229C5.67797 13.7059 3.81997 14.3509 1.79997 14.3509C1.45197 14.3509 1.10897 14.3319 0.771973 14.2949C2.67897 15.4399 4.94497 16.1099 7.37897 16.1099C15.307 16.1099 19.642 9.95389 19.642 4.61689C19.642 4.44089 19.637 4.26789 19.629 4.09389C20.471 3.52389 21.202 2.81289 21.78 2.00389Z" fill="white"/>
</g>
<defs>
<clipPath id="clip0_8_112">
<rect width="24.9797" height="17.0408" fill="white" transform="translate(0.771973 0.10791)"/>
</clipPath>
</defs>
</svg>
